<svg width="6944" height="1486" viewBox="0 0 6944 1486" fill="none" xmlns="http://www.w3.org/2000/svg">
<g clip-path="url(#clip0)">
<rect width="6944" height="1486" fill="white"/>
<path d="M1253.88 1192C1240.87 1183.87 1225.59 1186.46 1211.51 1183.2C1136.89 1165.86 1076.91 1131.45 1055.95 1051.23C1050.46 1030.27 1049.48 1008.56 1049.39 987.06C1048.8 805.582 1048.72 624.148 1048 442.669C1047.96 429.307 1051.44 424.66 1065.38 424.883C1118.16 425.643 1170.98 426.09 1223.76 424.705C1243.33 424.213 1242.93 434.134 1242.93 447.942C1242.71 599.659 1242.66 751.375 1242.89 903.091C1242.93 946.215 1243.87 989.339 1244.9 1032.46C1245.21 1046.58 1248.96 1059.95 1265.86 1062.09C1281.36 1064.1 1292.27 1057.09 1294.28 1040.91C1296.38 1023.97 1298.16 1006.9 1298.21 989.875C1298.52 809.916 1298.83 629.912 1297.94 449.953C1297.85 428.816 1304.2 424.258 1323.95 424.749C1374.49 426.09 1425.08 425.598 1475.62 424.928C1489.34 424.749 1493.59 429.173 1493.45 442.759C1491.62 633.845 1496.85 825.021 1490.28 1016.06C1487.06 1109.06 1417.62 1176.49 1316.67 1187.31C1310.54 1187.98 1302.99 1184.54 1298.52 1192C1283.64 1192 1268.76 1192 1253.88 1192Z" fill="#F47E3C"/>
<path d="M6829.44 1174.17C6717.32 1174.04 6605.15 1173.28 6493.03 1174.3C6471.75 1174.48 6469.39 1167.42 6467.6 1148.29C6461.21 1081.04 6482.03 1019.5 6501.43 957.119C6538.61 837.444 6574.4 717.322 6611.72 597.692C6617.17 580.264 6615.96 574.231 6595.94 575.169C6564.8 576.644 6533.56 575.035 6502.37 575.795C6489.9 576.108 6485.56 572.443 6485.83 559.573C6486.59 521.678 6486.95 483.737 6485.7 445.887C6485.12 429.173 6489.9 424.615 6506.7 424.749C6610.74 425.554 6714.72 425.196 6818.76 425.151C6822.38 425.151 6825.95 424.481 6829.57 424.079C6829.57 476.185 6829.57 528.247 6829.57 580.353C6828.01 581.47 6825.46 582.23 6824.97 583.705C6778.9 725.5 6732.96 867.385 6686.97 1009.18C6683.4 1020.13 6687.24 1023.53 6698.28 1023.39C6742.03 1022.72 6785.78 1022.63 6829.53 1022.36C6829.44 1072.95 6829.44 1123.54 6829.44 1174.17Z" fill="#F47E3C"/>
<path d="M2281.35 770.993C2357.05 784.578 2391.28 827.613 2394.72 895.583C2397.63 952.74 2399.82 1010.12 2391.28 1067.01C2381.36 1133.1 2347.13 1163.31 2276.7 1169.16C2170.57 1177.97 2064.16 1171.89 1957.9 1174.04C1940.78 1174.39 1943.15 1164.07 1943.15 1153.75C1943.15 1061.56 1943.15 969.319 1943.15 877.127C1943.15 734.349 1943.46 591.57 1942.79 448.791C1942.7 431.095 1946.1 424.213 1965.63 424.794C2046.6 427.118 2127.71 422.336 2208.64 428.458C2228.71 429.978 2248.59 432.614 2267.99 437.709C2319.56 451.205 2354.19 483.603 2369.52 534.459C2383.15 579.772 2384.27 626.382 2380.6 673.573C2376.85 721.613 2351.69 749.677 2306.87 762.636C2300.48 764.379 2294.26 766.703 2281.35 770.993ZM2137.86 939.735C2137.86 964.269 2137.86 988.803 2137.86 1013.34C2137.86 1047.39 2145.05 1051.99 2177.72 1039.7C2195.46 1033.04 2199.66 1018.07 2200.02 1002.12C2200.91 963.509 2201.31 924.809 2200.55 886.199C2199.79 847.186 2192.64 841.198 2153.18 836.953C2141.12 835.657 2137.41 838.472 2137.68 850.538C2138.3 880.255 2137.86 910.018 2137.86 939.735ZM2201.27 638.18C2200.24 619.724 2202.92 600.955 2197.38 582.811C2190.94 561.629 2164.98 547.82 2144.29 553.674C2138.39 555.328 2137.94 558.858 2137.94 563.372C2137.9 612.439 2137.85 661.462 2138.08 710.53C2138.08 713.166 2139.29 716.831 2141.21 718.216C2155.46 728.584 2191.44 713.881 2196.62 695.783C2201.98 676.924 2200.02 657.44 2201.27 638.18Z" fill="#F47E3C"/>
<path d="M3637.72 749.856C3637.72 689.214 3637.72 628.617 3637.72 567.975C3637.72 528.56 3638.71 489.056 3637.28 449.685C3636.61 430.916 3640.31 423.587 3661.18 424.615C3699.75 426.582 3738.54 426.09 3777.19 424.794C3795.34 424.168 3801.33 428.95 3801.1 447.987C3800.16 543.218 3800.66 638.448 3800.66 733.679C3800.66 872.793 3800.25 1011.95 3801.1 1151.07C3801.24 1169.97 3795.74 1174.8 3777.51 1174.17C3735.9 1172.83 3694.16 1172.96 3652.56 1174.12C3635.85 1174.62 3628.34 1170.42 3623.42 1153.12C3596.16 1057.44 3567.25 962.258 3538.87 866.894C3537.26 861.487 3535.25 856.169 3532.71 848.616C3527.39 858.984 3529.49 867.028 3529.44 874.759C3529.26 967.755 3529 1060.75 3529.67 1153.75C3529.76 1168.9 3526.27 1174.53 3510.05 1174.08C3468.4 1172.96 3426.71 1172.96 3385.1 1174.08C3368.88 1174.53 3365.57 1168.9 3365.62 1153.79C3366.06 917.928 3366.11 682.108 3365.57 446.244C3365.53 429.978 3369.01 424.168 3386.31 424.705C3427.2 426.001 3468.13 425.956 3509.02 424.705C3524.62 424.213 3530.65 429.576 3535.25 444.055C3565.91 541.028 3597.55 637.733 3628.87 734.483C3630.62 739.89 3632.54 745.208 3634.33 750.571C3635.49 750.392 3636.61 750.124 3637.72 749.856Z" fill="#F47E3C"/>
<path d="M3056.96 702.441C3068.84 663.026 3080.82 623.656 3092.57 584.241C3106.56 537.319 3120.73 490.396 3134 443.25C3137.8 429.799 3143.7 424.481 3158.49 424.794C3206.8 425.866 3255.15 425.822 3303.5 424.839C3320.39 424.526 3321.38 429.397 3316.51 443.876C3282.77 544.514 3249.92 645.419 3216.31 746.102C3212.34 758.033 3212.2 768.714 3215.82 780.69C3252.91 904.387 3289.16 1028.35 3326.78 1151.87C3332.59 1170.91 3328.39 1174.44 3309.98 1174.08C3257.96 1173.1 3205.86 1172.83 3153.84 1174.21C3135.83 1174.71 3130.11 1168.23 3126.22 1151.74C3105.58 1064.33 3083.64 977.229 3062.14 890.042C3060.44 883.116 3058.48 876.278 3053.11 869.888C3053.11 891.651 3053.11 913.414 3053.11 935.177C3053.11 1008.82 3053.02 1082.42 3053.2 1156.07C3053.25 1166.62 3053.43 1174.26 3038.59 1174.04C2983.58 1173.23 2928.52 1173.41 2873.51 1173.95C2861.4 1174.08 2857.6 1169.34 2858.45 1158.22C2858.9 1152.32 2858.5 1146.33 2858.5 1140.39C2858.5 909.839 2858.68 679.248 2858.14 448.702C2858.09 430.827 2861.94 424.124 2881.24 424.66C2931.78 426.045 2982.37 425.956 3032.91 424.66C3050.43 424.213 3053.65 430.112 3053.47 446.2C3052.67 524.27 3053.11 602.385 3053.11 680.455C3053.11 687.516 3053.11 694.576 3053.11 701.592C3054.36 701.95 3055.66 702.173 3056.96 702.441Z" fill="#F47E3C"/>
<path d="M5782.98 1121.12C5737.8 1189.9 5675.01 1201.38 5605.03 1179.8C5531.03 1157.01 5487.32 1105.31 5476.24 1027.37C5470.79 988.848 5471.32 950.148 5471.81 911.537C5473.24 802.23 5466.63 692.789 5476.28 583.66C5483.79 498.619 5532.72 440.882 5615.4 419.342C5672.06 404.55 5729.13 405.489 5784.72 423.677C5860.29 448.389 5908.82 497.546 5917.94 579.728C5921.87 615.255 5923.57 650.871 5923.3 686.622C5923.21 696.721 5920.98 701.145 5909.76 701.056C5853.99 700.565 5798.17 700.52 5742.4 701.101C5729.84 701.235 5727.74 695.962 5727.83 685.147C5728.06 651.676 5727.56 618.204 5726.94 584.733C5726.76 575.885 5725.42 566.992 5723.94 558.233C5721.17 542.145 5710.05 535.978 5695.03 536.47C5680.33 536.917 5671.3 545.586 5669.56 559.797C5667.33 578.208 5665.63 596.843 5665.54 615.389C5665.18 738.147 5665.22 860.906 5665.49 983.664C5665.54 1000.73 5667.15 1017.85 5669.25 1034.79C5671.12 1050.16 5678.68 1061.51 5696.06 1062.27C5713.35 1063.03 5725.2 1054.85 5728.46 1038C5731.81 1020.58 5733.87 1002.75 5734.54 985.005C5735.56 958.281 5733.95 931.423 5735.21 904.7C5735.97 888.523 5729.93 882.847 5714.78 885.216C5699.14 887.674 5694.27 881.373 5695.03 865.732C5696.28 839.768 5695.79 813.67 5695.21 787.617C5694.99 776.802 5697.09 771.708 5709.64 771.842C5775.83 772.423 5842.06 772.378 5908.24 771.887C5919.99 771.797 5923.34 775.417 5923.34 787.081C5922.99 910.599 5922.94 1034.07 5923.39 1157.59C5923.43 1170.33 5919.59 1174.26 5906.94 1173.95C5876.47 1173.14 5845.94 1173.05 5815.47 1173.99C5803.13 1174.39 5798.4 1169.03 5795.45 1158.53C5792.14 1147.18 5787.94 1136.05 5782.98 1121.12Z" fill="#F47E3C"/>
<path d="M6192.68 425.151C6233.57 425.151 6274.5 425.956 6315.35 424.749C6330.99 424.302 6335.59 430.335 6337.6 444.457C6357.04 578.968 6376.93 713.435 6396.81 847.857C6412.01 950.729 6427.07 1053.6 6443.16 1156.34C6445.48 1171.09 6442.35 1174.12 6428.32 1173.99C6373.31 1173.37 6318.3 1173.32 6263.24 1174.04C6249.66 1174.21 6245.41 1169.79 6244.7 1156.47C6242.91 1122.33 6239.2 1088.32 6237.14 1054.23C6236.47 1042.92 6232.63 1039.52 6221.14 1039.12C6168.46 1037.33 6168.37 1036.93 6162.78 1088.28C6160.19 1111.92 6157.46 1135.56 6156.17 1159.29C6155.54 1171.04 6151.16 1174.04 6139.95 1173.95C6083.46 1173.45 6026.93 1173.41 5970.44 1173.95C5957.93 1174.08 5953.55 1171.22 5955.38 1157.68C5980.14 975.128 6004.5 792.533 6028.81 609.937C6036.09 555.462 6043.47 500.987 6049.81 446.378C6051.69 430.246 6057.01 424.034 6074.43 424.705C6113.85 426.179 6153.26 425.151 6192.68 425.151ZM6201.62 606.049C6200.14 611.859 6197.64 618.606 6196.79 625.533C6187.23 703.559 6177.22 781.539 6168.9 859.699C6163.9 906.711 6165.2 906.219 6211.85 906.622C6227.49 906.756 6231.47 903.404 6229.68 886.869C6219.45 793.248 6210.78 699.447 6201.62 606.049Z" fill="#F47E3C"/>
<path d="M2465.42 799.147C2465.42 682.332 2465.78 565.517 2465.02 448.702C2464.88 430.916 2468.5 424.481 2487.9 424.705C2581.61 425.777 2675.36 425.598 2769.12 424.794C2785.83 424.66 2790.79 429.039 2790.17 445.887C2788.87 483.023 2789.05 520.293 2790.12 557.473C2790.53 572.444 2785.61 576.376 2771.26 575.929C2739.31 574.946 2707.27 576.019 2675.32 575.393C2664.01 575.17 2659.68 578.164 2659.9 590.274C2660.62 627.455 2660.53 664.68 2659.95 701.861C2659.77 713.524 2663.66 717.412 2675.23 717.189C2704.23 716.563 2733.28 717.501 2762.28 716.786C2775.73 716.474 2782.35 718.797 2781.72 734.796C2780.43 769.697 2780.65 804.733 2781.63 839.679C2782.08 854.828 2778.28 860.772 2762.06 860.057C2733.86 858.805 2705.53 860.369 2677.29 859.431C2663.43 858.984 2659.63 863.721 2659.9 877.217C2660.66 920.341 2660.84 963.554 2659.81 1006.68C2659.46 1021.34 2665.13 1023.84 2677.96 1023.57C2712.9 1022.86 2747.89 1023.97 2782.84 1023.03C2797.68 1022.63 2803.89 1025.63 2803.35 1042.25C2802.1 1080.15 2802.5 1118.13 2803.22 1156.07C2803.44 1168.99 2800.89 1174.26 2786.32 1174.12C2685.15 1173.45 2583.98 1173.37 2482.8 1174.17C2466.22 1174.3 2465.29 1166.93 2465.29 1154.1C2465.55 1035.77 2465.42 917.436 2465.42 799.147Z" fill="#F47E3C"/>
<path d="M5083.83 798.878C5083.83 681.304 5084.15 563.774 5083.48 446.199C5083.39 430.067 5086.69 424.57 5104.08 424.704C5198.55 425.598 5293.02 425.554 5387.49 424.749C5404.2 424.615 5409.34 428.995 5408.76 445.887C5407.51 482.307 5407.42 518.818 5408.81 555.239C5409.48 572.667 5403.49 576.599 5387.22 575.929C5356.79 574.678 5326.22 576.242 5295.74 575.259C5281.85 574.812 5277.96 579.549 5278.27 593C5279.08 627.946 5279.08 662.937 5278.27 697.883C5277.96 712.094 5281.98 717.769 5297 717.233C5325.24 716.205 5353.53 717.635 5381.77 716.652C5396.61 716.116 5400.72 721.344 5400.31 735.823C5399.33 770.769 5399.11 805.805 5400.4 840.706C5401.03 857.509 5394.33 860.459 5379.67 859.967C5351.43 859.029 5323.14 860.19 5294.89 859.475C5282.25 859.163 5278.14 863.721 5278.32 876.233C5278.9 919.358 5278.99 962.526 5278.27 1005.7C5278.05 1019.1 5281.85 1023.93 5295.79 1023.57C5330.73 1022.72 5365.73 1023.88 5400.67 1022.99C5415.42 1022.63 5421.99 1025.85 5421.5 1042.34C5420.38 1080.23 5420.65 1118.22 5421.41 1156.16C5421.68 1169.48 5418.1 1174.08 5404.02 1174.04C5302.85 1173.45 5201.68 1173.28 5100.5 1174.17C5083.03 1174.35 5083.7 1165.77 5083.7 1153.75C5083.92 1035.46 5083.83 917.168 5083.83 798.878Z" fill="#F47E3C"/>
<path d="M3878.55 798.119C3878.55 681.349 3878.99 564.534 3878.1 447.764C3877.97 428.95 3883.46 424.571 3901.7 424.749C3995.41 425.688 4089.12 425.464 4182.83 424.883C4197.93 424.794 4203.83 428.458 4203.39 444.635C4202.31 482.531 4202.49 520.516 4203.34 558.411C4203.65 572.31 4199.01 576.242 4185.51 575.885C4153.56 575.035 4121.56 576.063 4089.56 575.393C4077.14 575.125 4072.72 578.879 4072.99 591.704C4073.7 627.41 4073.88 663.116 4072.94 698.822C4072.54 714.06 4078.57 717.725 4092.56 717.323C4121.56 716.473 4150.56 717.457 4179.57 716.92C4190.96 716.697 4195.21 720.406 4195.03 732.248C4194.4 769.429 4194.31 806.654 4195.07 843.835C4195.34 857.196 4189.8 860.191 4177.91 859.967C4148.15 859.476 4118.39 860.191 4088.67 859.654C4077.19 859.431 4072.94 863.363 4073.07 875.072C4073.57 919.715 4073.61 964.314 4073.03 1008.96C4072.85 1021.47 4078.44 1023.66 4089.16 1023.57C4124.87 1023.12 4160.57 1023.93 4196.24 1023.17C4209.82 1022.9 4216.48 1025.49 4216.08 1041.18C4215.09 1079.83 4215.14 1118.53 4216.08 1157.19C4216.43 1171.76 4210.76 1174.17 4197.8 1174.12C4097.39 1173.63 3996.97 1173.41 3896.6 1174.3C3878.77 1174.48 3878.28 1166.62 3878.32 1153.03C3878.73 1034.65 3878.55 916.364 3878.55 798.119Z" fill="#F47E3C"/>
<path d="M1713.72 1173.72C1660.18 1173.72 1606.65 1173.19 1553.16 1174.08C1538.41 1174.3 1535.73 1169.52 1534.39 1155.4C1527.73 1084.7 1547.48 1019.15 1568.53 953.052C1606.11 834.986 1640.97 716.071 1678.06 597.871C1684.32 577.94 1679.62 574.276 1660.41 575.214C1630.02 576.689 1599.45 575.08 1569.02 575.84C1556.73 576.153 1552.08 572.89 1552.35 559.797C1553.11 520.427 1553.02 480.967 1552.4 441.597C1552.17 429.173 1555.75 424.883 1568.62 424.928C1671.22 425.375 1773.78 425.33 1876.38 424.973C1888.72 424.928 1893.37 428.19 1893.14 441.194C1892.43 483.559 1892.74 525.968 1892.96 568.332C1893.01 579.102 1888.99 588.71 1885.86 598.497C1842.33 733.366 1798.9 868.234 1754.7 1002.88C1749.25 1019.55 1751.08 1024.46 1769.67 1023.75C1805.29 1022.36 1841.04 1023.84 1876.7 1023.08C1889.43 1022.81 1893.37 1026.97 1893.14 1039.61C1892.47 1078.98 1892.43 1118.44 1893.14 1157.81C1893.37 1170.68 1889.03 1174.17 1876.56 1174.04C1822.27 1173.41 1767.97 1173.72 1713.72 1173.72Z" fill="#F47E3C"/>
<path d="M4271.49 801.426C4271.49 683.136 4271.76 564.891 4271.18 446.647C4271.09 431.319 4273.05 424.526 4291.24 424.705C4387.9 425.688 4484.61 425.509 4581.27 424.839C4596.6 424.749 4601.96 428.637 4601.47 444.591C4600.35 482.486 4600.53 520.471 4601.42 558.367C4601.74 572.354 4597.09 576.153 4583.64 575.795C4550.93 574.946 4518.17 576.376 4485.5 575.17C4469.46 574.589 4465.44 580.085 4465.93 595.369C4466.96 629.555 4466.78 663.786 4466.02 698.017C4465.7 712.228 4469.86 717.814 4484.83 717.233C4513.07 716.205 4541.36 717.412 4569.6 716.697C4581.89 716.384 4586.72 719.825 4586.45 732.919C4585.69 770.099 4585.83 807.28 4586.41 844.505C4586.59 856.258 4582.34 860.101 4570.86 859.878C4542.61 859.297 4514.33 860.503 4486.08 859.386C4470.35 858.761 4465.88 863.944 4466.02 879.541C4466.69 970.302 4465.88 1061.02 4466.73 1151.78C4466.91 1169.08 4462.67 1174.66 4444.66 1174.21C4393.36 1172.96 4342.01 1173.1 4290.71 1174.17C4274.62 1174.48 4271.18 1169.25 4271.27 1154.06C4271.76 1036.49 4271.49 918.956 4271.49 801.426Z" fill="#F47E3C"/>
<path d="M4923.71 874.401C4923.71 967.353 4923.27 1060.3 4924.12 1153.21C4924.25 1170.06 4919.69 1174.48 4903.07 1174.12C4852.53 1173.01 4801.94 1172.83 4751.44 1174.17C4733.03 1174.66 4729.63 1168.23 4729.68 1151.42C4730.21 967.755 4729.63 784.087 4730.53 600.463C4730.62 579.549 4724.72 573.739 4704.61 575.125C4679.45 576.823 4654.07 575.125 4628.82 575.706C4618.18 575.974 4614.61 572.399 4614.7 561.718C4615.14 520.829 4615.14 479.939 4614.7 439.049C4614.56 428.324 4618.41 424.973 4628.95 424.973C4761.27 425.241 4893.64 425.241 5025.96 424.928C5037.13 424.883 5039.68 429.307 5039.59 439.452C5039.19 480.341 5039.1 521.231 5039.64 562.121C5039.77 573.293 5035.3 575.84 5025.16 575.661C4998.39 575.125 4971.53 576.823 4944.9 575.035C4926.13 573.784 4923.27 581.202 4923.4 597.692C4924.07 689.973 4923.71 782.21 4923.71 874.401Z" fill="#F47E3C"/>
<path d="M502.776 475.267C546.831 447.982 579.525 410.775 600.236 363.22C603.783 355.079 606.726 346.676 610.273 337.554C627.355 355.324 641.348 374.205 652.562 395.081C673.453 433.972 684.52 475.381 681.921 519.683C678.619 575.625 655.75 619.093 604.045 646.459C548.335 675.934 496.597 711.703 452.101 756.872C417.413 792.068 391.226 832.349 378.067 880.77C360.935 943.791 380.421 997.787 418.558 1046.49C448.734 1085.02 491.285 1104.64 538.592 1110.91C593.452 1118.2 646.17 1108.3 689.898 1072.33C725.436 1043.1 740.966 1004.47 731.321 957.425C727.43 938.429 713.879 928.538 699.592 919.155C668.974 899.047 638.242 903.003 608.099 920.626C583.889 934.783 563.766 953.91 544.935 974.394C540.554 979.167 538.739 978.758 534.669 974.099C517.096 954.008 515.151 930.647 519.287 905.832C522 889.517 525.073 873.234 527.869 856.936C535.862 810.312 562.704 776.783 604.731 755.858C630.02 743.27 656.616 733.282 680.973 718.814C731.419 688.849 758.522 644.171 763.835 585.973C764.162 582.475 764.701 578.992 765.273 574.448C776.356 582.295 785.086 591.466 793.586 600.735C816.733 625.91 834.845 653.963 842.218 688.015C850.015 723.996 843.444 758.196 829.745 791.561C829.532 792.068 829.402 792.624 829.075 793.049C818.4 807.402 823.86 818.012 834.224 830.877C875.99 882.65 904.711 941.012 917.315 1006.78C931.716 1081.85 922.905 1154.56 890.343 1223.21C826.394 1358.01 719.339 1439.16 573.869 1469.42C500.341 1484.72 427.777 1475.29 356.325 1455.18C271.535 1431.31 199.625 1386.24 139.158 1322.34C73.1008 1252.52 28.0818 1171.76 9.96953 1076.8C0.0797186 1024.94 -2.15979 972.759 1.9596 920.119C11.3917 799.588 57.9801 692.625 120.49 591.27C164.643 519.683 214.321 451.808 260.451 381.562C292.409 332.895 323.419 283.672 348.544 231C380.012 165.053 400.266 95.6247 412.477 23.744C414.602 11.238 416.416 -1.317 418.558 -15C428.709 -5.1914 436.915 5.12398 445.268 15.2595C486.005 64.6131 520.987 117.531 544.624 177.347C562.949 223.692 572.904 271.607 569.128 321.615C565.908 364.282 552.896 403.353 525.351 437.144C516.148 448.44 509.43 461.747 501.567 474.139C500.847 474.809 500.145 475.479 500.782 476.574C500.112 476.689 499.458 476.803 498.788 476.918C498.869 477.147 498.951 477.359 499.017 477.588C499.556 477.212 500.095 476.836 500.635 476.444C501.42 476.084 502.09 475.675 502.776 475.267Z" fill="#17A4DE"/>
</g>
<defs>
<clipPath id="clip0">
<rect width="6944" height="1486" fill="white"/>
</clipPath>
</defs>
</svg>
